<svg version="1" xmlns="http://www.w3.org/2000/svg" width="800" height="800" viewBox="0 0 600.000000 600.000000"><path d="M317 62.7c-6.3 10.9-21.6 37.3-34 58.8-12.4 21.4-30.4 52.5-40 69-9.5 16.5-25.6 44.4-35.8 62-29.9 51.6-45.9 79.3-62.2 107.5-8.4 14.6-24.2 41.8-35 60.5-10.8 18.7-27.5 47.5-37 64s-21.7 37.6-27.2 46.9c-5.4 9.3-9.8 17.1-9.8 17.2 0 .2 26.5.4 58.8.4h58.8l24.5-14.3c13.4-7.8 53.1-30.9 88.2-51.2l63.6-37 .1-11.8V423h-29c-26.1 0-29.3.2-32.2 1.8-1.8 1-8.5 4.2-14.8 7.2-6.3 2.9-18.9 8.8-27.9 13.1-8.9 4.4-16.5 7.9-16.8 7.9-.3 0 .1-1 .9-2.3.8-1.2 15.8-27.2 33.3-57.7 17.5-30.5 42.4-74 55.3-96.5 13-22.6 24.7-42.9 26-45.2 1.3-2.4 2.7-4.5 3.2-4.8.4-.3 2.7 2.8 4.9 6.8 2.3 3.9 4.6 7.9 5.2 8.7.5.8 1.2 2.2 1.6 3 .4.8 4.2 7.4 8.5 14.7 4.3 7.2 7.8 13.4 7.8 13.7 0 .3 1.6 3 3.5 6s3.5 5.7 3.5 5.9c0 .3 14.2 25.2 17 29.7.5.8 2 3.6 3.4 6.1 1.3 2.5 5.2 9.1 8.5 14.7 3.4 5.6 6.1 10.6 6.1 11.2 0 .5.4 1 .9 1s1.2 1.1 1.5 2.5c.4 1.4 1.1 2.5 1.6 2.5.6 0 1 .6 1 1.3 0 .7 2.5 5.3 5.5 10.2 3 5 5.5 9.6 5.5 10.2 0 .7.4 1.3.9 1.3s1.3 1 1.7 2.2c.4 1.3.9 2.5 1.3 2.8.3.3 1.4 2.1 2.3 4 1 1.9 2.2 4.2 2.8 5 3.9 5.9 10 16.6 10 17.7 0 .7.5 1.3 1 1.3.6 0 1 .6 1 1.4 0 .8.6 2.1 1.3 2.8.6.7 2.3 3.4 3.6 6 4.9 9.7-1.8 8.8 64.6 8.8 53.6 0 58.5-.1 58.5-1.6 0-.9-2.2-5.4-5-10-2.7-4.6-5-8.8-5-9.4 0-.5-.4-1-1-1-.5 0-1-.6-1-1.4 0-.8-.6-2.1-1.2-2.8-.7-.7-2-2.7-2.8-4.3-.8-1.7-4.4-8-8-14-3.6-6.1-7.2-12.4-8-14-.8-1.7-2.1-3.6-2.7-4.3-.7-.7-1.3-1.9-1.3-2.7 0-.7-.3-1.5-.7-1.7-.5-.2-1.6-1.9-2.5-3.8-1-1.9-2.2-4.2-2.8-5-3.9-5.9-10-16.6-10-17.7 0-.7-.4-1.3-.9-1.3s-1.1-.8-1.5-1.8c-.3-.9-1-2.4-1.6-3.2-1.4-2.1-24-41.1-24-41.5 0-.6-10.4-18-11-18.5-.3-.3-2.1-3.2-4-6.5-1.8-3.3-8.2-14.3-14-24.5-5.9-10.2-24.9-43-42.2-73-56.5-97.7-70.1-121.4-75.7-131.3-3-5.3-6-9.7-6.6-9.7-.6 0-6.2 8.9-12.5 19.7z"/><path d="M322.5 333.7c-2.7 4.8-6.3 11-7.8 13.8-1.6 2.7-3.2 5.4-3.7 6-.4.5-2.2 3.7-4 7-1.8 3.3-3.6 6.2-3.9 6.5-.3.3-1.5 2.3-2.7 4.5-1.1 2.2-3.1 5.9-4.4 8.2-1.4 2.3-2.2 4.5-1.8 4.9 1 1 67.8-.7 67.8-1.7 0-.5-7.2-13.3-16-28.5-8.8-15.1-16-27.9-16-28.5 0-.5-.6-.9-1.2-.9-.7 0-3.5 3.9-6.3 8.7z"/></svg>